<svg id="svgexport-6_-_2022-07-23T131425.426" data-name="svgexport-6 - 2022-07-23T131425.426" xmlns="http://www.w3.org/2000/svg" width="43.48" height="43.834" viewBox="0 0 43.48 43.834">
  <g id="Group_6215" data-name="Group 6215" transform="translate(0 0)">
    <g id="Group_6212" data-name="Group 6212" transform="translate(21.039 22.795)">
      <path id="Path_1055" data-name="Path 1055" d="M30.7,40.219H47.532a4.206,4.206,0,0,1,.7.063V34.609a2.106,2.106,0,0,0-2.1-2.1H32.1a2.106,2.106,0,0,0-2.1,2.1v5.673A4.282,4.282,0,0,1,30.7,40.219Z" transform="translate(-30 -32.505)" fill="#ffa64d"/>
    </g>
    <g id="Group_6213" data-name="Group 6213" transform="translate(8.416 12.977)">
      <path id="Path_1056" data-name="Path 1056" d="M12,18.5v6.312h5.61V22.011h3.506V18.5Z" transform="translate(-12 -18.505)" fill="#ffa64d"/>
    </g>
    <g id="Group_6214" data-name="Group 6214">
      <path id="Path_1057" data-name="Path 1057" d="M42.078,31.289V24.9a4.914,4.914,0,0,0-4.909-4.909H30.857V15.882a2.8,2.8,0,0,1,2.1,2.706h1.4a2.805,2.805,0,0,1,5.61,0h1.4v-.7A11.151,11.151,0,0,0,28.351,6.824,20.317,20.317,0,0,1,18.056.589L17.532,0l-.525.59A20.325,20.325,0,0,1,3.448,7.37l-.508.043L.413,18.156A15.52,15.52,0,0,0,8.09,35.339l6.472,3.53a6.22,6.22,0,0,0,2.97.757h2.1v2.1a2.106,2.106,0,0,0,2.1,2.1h1.4a2.106,2.106,0,0,0,2.1-2.1v-2.1h9.818v2.1a2.106,2.106,0,0,0,2.1,2.1h1.4a2.106,2.106,0,0,0,2.1-2.1v-2.1h.7a2.106,2.106,0,0,0,2.1-2.1V34.717a4.891,4.891,0,0,0-1.4-3.429ZM20.886,11.575a11.154,11.154,0,0,0-1.951,6.312v.7h1.4a2.8,2.8,0,0,1,2.1-2.706v4.164A4.912,4.912,0,0,0,18.234,24.9v3.506H7.013V11.575Zm5.167,3.983a4.186,4.186,0,0,0-5.318-.416,9.84,9.84,0,0,1,7.623-6.9A14.513,14.513,0,0,0,26.053,15.558Zm-6.73,16.631,1.18.59a3.485,3.485,0,0,1,1.9,2.64H18.234v-.7A3.489,3.489,0,0,1,19.323,32.189Zm4.487,3.229a4.872,4.872,0,0,0-2.68-3.894l-.335-.168a3.458,3.458,0,0,1,.945-.146h1.618l.456,1.215a6.758,6.758,0,0,0,2.233,2.992Zm1.318-3.485-.271-.722h10.6l-.271.722a5.37,5.37,0,0,1-10.057,0Zm11.37.493.456-1.215h1.618a3.458,3.458,0,0,1,.945.146l-.335.168a4.874,4.874,0,0,0-2.68,3.894H34.264A6.753,6.753,0,0,0,36.5,32.427Zm3.311.353,1.18-.59a3.489,3.489,0,0,1,1.089,2.528v.7H37.9A3.483,3.483,0,0,1,39.808,32.78Zm.867-7.88v5.389a4.865,4.865,0,0,0-2.1-.48H21.74a4.875,4.875,0,0,0-2.1.48V24.9a3.51,3.51,0,0,1,3.506-3.506H37.168A3.511,3.511,0,0,1,40.675,24.9ZM23.844,19.99V15.882a2.8,2.8,0,0,1,2.1,2.706h1.4a2.8,2.8,0,0,1,2.1-2.706V19.99Zm6.312-5.61a4.18,4.18,0,0,0-2.681.977c.442-4.4,1.972-6.382,2.681-7.077.709.694,2.24,2.674,2.681,7.077A4.18,4.18,0,0,0,30.156,14.38Zm9.42.762a4.185,4.185,0,0,0-5.318.417,14.519,14.519,0,0,0-2.305-7.317A9.842,9.842,0,0,1,39.576,15.142ZM25.869,7.521a11.243,11.243,0,0,0-3.84,2.652h-3.8v-7.4A21.655,21.655,0,0,0,25.869,7.521ZM8.762,34.107A14.118,14.118,0,0,1,1.778,18.476l2.3-9.758A21.7,21.7,0,0,0,16.831,2.793v7.379H5.61V29.808H18.234v1.48a4.891,4.891,0,0,0-1.4,3.429v2.805a2.073,2.073,0,0,0,.118.665,4.8,4.8,0,0,1-1.715-.55ZM23.844,41.73a.7.7,0,0,1-.7.7h-1.4a.7.7,0,0,1-.7-.7v-2.1h2.805Zm15.428,0a.7.7,0,0,1-.7.7h-1.4a.7.7,0,0,1-.7-.7v-2.1h2.805Zm2.1-3.506H18.935a.7.7,0,0,1-.7-.7v-.7H42.078v.7A.7.7,0,0,1,41.376,38.224Z" transform="translate(0 0)"/>
      <path id="Path_1058" data-name="Path 1058" d="M15.191,33.913l-.907-.907L13.293,34l1.9,1.9L21.3,29.79l-.992-.992Z" transform="translate(-3.971 -8.602)"/>
      <path id="Path_1059" data-name="Path 1059" d="M12,18.5h1.4v1.4H12Z" transform="translate(-3.584 -5.528)"/>
      <path id="Path_1060" data-name="Path 1060" d="M16,18.5h6.312v1.4H16Z" transform="translate(-4.779 -5.528)"/>
      <path id="Path_1061" data-name="Path 1061" d="M12,22.5h9.117v1.4H12Z" transform="translate(-3.584 -6.722)"/>
      <path id="Path_1062" data-name="Path 1062" d="M12,26.505h5.61v1.4H12Z" transform="translate(-3.584 -7.917)"/>
    </g>
  </g>
</svg>
