<svg xmlns="http://www.w3.org/2000/svg" width="22.246" height="40.566" viewBox="0 0 22.246 40.566">
  <g id="svgexport-6_-_2022-07-23T132107.368" data-name="svgexport-6 - 2022-07-23T132107.368" transform="translate(0)">
    <path id="Path_1098" data-name="Path 1098" d="M49.012,226.32H32V208H49.012Zm0,0" transform="translate(-29.383 -190.988)" fill="#ffa64d"/>
    <path id="Path_1099" data-name="Path 1099" d="M21.762,11.31,19.629,7.043V5.114a1.96,1.96,0,0,0,1.309-1.842V1.963A1.965,1.965,0,0,0,18.974,0H13.74a1.965,1.965,0,0,0-1.963,1.963V3.271a1.96,1.96,0,0,0,1.309,1.842V6.754L2.879,10.837A4.558,4.558,0,0,0,0,15.09v20.9a4.585,4.585,0,0,0,4.58,4.58H17.666a4.585,4.585,0,0,0,4.58-4.58V13.359a4.6,4.6,0,0,0-.483-2.048ZM13.086,1.963a.656.656,0,0,1,.654-.654h5.234a.656.656,0,0,1,.654.654V3.271a.656.656,0,0,1-.654.654H13.74a.656.656,0,0,1-.654-.654ZM3.365,12.052,14.394,7.64V5.234H18.32V7.351L20.592,11.9a3.3,3.3,0,0,1,.345,1.464v1.036H5.234V15.7h15.7V35.986a3.275,3.275,0,0,1-.066.654H1.375a3.275,3.275,0,0,1-.066-.654V15.735L3.934,15.7l-.016-1.309-2.534.031a3.247,3.247,0,0,1,1.981-2.374Zm14.3,27.205H4.58a3.256,3.256,0,0,1-2.6-1.309H20.267a3.259,3.259,0,0,1-2.6,1.309Zm0,0" transform="translate(0)"/>
    <path id="Path_1100" data-name="Path 1100" d="M84.3,245.094h.553a4.3,4.3,0,0,0,3.778-6.365L84.58,231.3l-4.054,7.433a4.3,4.3,0,0,0,3.778,6.364Zm-2.63-5.738,2.906-5.327,2.906,5.327a3,3,0,0,1-2.63,4.43H84.3a3,3,0,0,1-2.629-4.43Zm0,0" transform="translate(-73.457 -212.38)"/>
  </g>
</svg>
