<svg xmlns="http://www.w3.org/2000/svg" width="39.178" height="39.178" viewBox="0 0 39.178 39.178">
  <g id="svgexport-6_-_2022-07-23T131514.520" data-name="svgexport-6 - 2022-07-23T131514.520" transform="translate(-1 -1)">
    <path id="Path_1063" data-name="Path 1063" d="M6.264,13A1.265,1.265,0,0,0,5,14.264V32.589H8.16V13Z" transform="translate(-1.472 -4.417)" fill="#ffa64d"/>
    <path id="Path_1064" data-name="Path 1064" d="M55.9,13H54V32.589h3.16V14.264A1.265,1.265,0,0,0,55.9,13Z" transform="translate(-19.509 -4.417)" fill="#ffa64d"/>
    <path id="Path_1065" data-name="Path 1065" d="M33.006,13.232,30.748,9.844A1.893,1.893,0,0,0,29.171,9H23.807a1.893,1.893,0,0,0-1.8,1.3L21,13.321v2.63h1.264v-1.9h3.791v3.791H23.528v1.264h8.847v-.632h.632Zm-5.687-2.968h1.851a.632.632,0,0,1,.526.281l1.5,2.246H27.319Zm-4.811,2.528.7-2.1a.632.632,0,0,1,.6-.432h2.249v2.528Zm4.811,1.264h4.423v3.791H27.319Z" transform="translate(-7.362 -2.945)"/>
    <path id="Path_1066" data-name="Path 1066" d="M35.782,11.052l-4.055-1.52L29.436,6.323A3.165,3.165,0,0,0,26.865,5h-5.95a4.442,4.442,0,0,0-4.253,3.208l-.372,1.3-1.766.353A1.9,1.9,0,0,0,13,11.724v4.019a1.9,1.9,0,0,0,1.9,1.9h1.9V16.374H14.9a.633.633,0,0,1-.632-.632V14.479H14.9a1.9,1.9,0,0,0,1.9-1.9V10.7l.5-.1.584-2.044a3.173,3.173,0,0,1,3.038-2.292h5.95a1.9,1.9,0,0,1,1.542.794l2.516,3.522,2.3.862v1.142a1.9,1.9,0,0,0,1.9,1.9h.632v1.264a.633.633,0,0,1-.632.632h-1.9v1.264h1.9a1.9,1.9,0,0,0,1.9-1.9V12.827a1.9,1.9,0,0,0-1.23-1.775ZM15.528,12.583a.633.633,0,0,1-.632.632h-.632V11.724a.634.634,0,0,1,.508-.62l.756-.151Zm19.589.632a.633.633,0,0,1-.632-.632v-.668l.854.32a.636.636,0,0,1,.41.592v.388Z" transform="translate(-4.417 -1.472)"/>
    <path id="Path_1067" data-name="Path 1067" d="M40.528,24.055a2.528,2.528,0,1,1,2.528-2.528A2.53,2.53,0,0,1,40.528,24.055Z" transform="translate(-13.619 -6.626)" fill="#ffa64d"/>
    <path id="Path_1068" data-name="Path 1068" d="M20.528,24.055a2.528,2.528,0,1,1,2.528-2.528A2.53,2.53,0,0,1,20.528,24.055Z" transform="translate(-6.258 -6.626)" fill="#ffa64d"/>
    <path id="Path_1069" data-name="Path 1069" d="M16.791,29a3.791,3.791,0,1,0,3.791,3.791A3.8,3.8,0,0,0,16.791,29Zm2.528,3.791a2.514,2.514,0,0,1-.192.962l-1.7-1.278V30.354A2.525,2.525,0,0,1,19.319,32.791Zm-5.055,0a2.525,2.525,0,0,1,1.9-2.438v2.754l2.2,1.651a2.5,2.5,0,0,1-1.568.561A2.53,2.53,0,0,1,14.264,32.791Z" transform="translate(-4.417 -10.307)"/>
    <path id="Path_1070" data-name="Path 1070" d="M40,30h6.951v5.687H40Z" transform="translate(-14.356 -10.675)" fill="#ffa64d"/>
    <path id="Path_1071" data-name="Path 1071" d="M27,30h6.951v5.055H27Z" transform="translate(-9.57 -10.675)" fill="#ffa64d"/>
    <path id="Path_1072" data-name="Path 1072" d="M49,37h1.264v1.264H49Z" transform="translate(-17.668 -13.251)"/>
    <path id="Path_1073" data-name="Path 1073" d="M40,37h4.423v1.264H40Z" transform="translate(-14.356 -13.251)"/>
    <path id="Path_1074" data-name="Path 1074" d="M27,37h6.951v1.264H27Z" transform="translate(-9.57 -13.251)"/>
    <path id="Path_1075" data-name="Path 1075" d="M40,33h6.951v1.264H40Z" transform="translate(-14.356 -11.779)"/>
    <path id="Path_1076" data-name="Path 1076" d="M36,33h1.264v1.264H36Z" transform="translate(-12.883 -11.779)"/>
    <path id="Path_1077" data-name="Path 1077" d="M27,33h4.423v1.264H27Z" transform="translate(-9.57 -11.779)"/>
    <path id="Path_1078" data-name="Path 1078" d="M40,29h6.951v1.264H40Z" transform="translate(-14.356 -10.307)"/>
    <path id="Path_1079" data-name="Path 1079" d="M27,29h6.951v1.264H27Z" transform="translate(-9.57 -10.307)"/>
    <path id="Path_1080" data-name="Path 1080" d="M37.019,6.055h-1.9V1H6.055V6.055H4.16A3.163,3.163,0,0,0,1,9.215V30.7a3.163,3.163,0,0,0,3.16,3.16h10.5l-.842,2.528H10.479a1.265,1.265,0,0,0-1.264,1.264v1.264a1.265,1.265,0,0,0,1.264,1.264H30.7a1.265,1.265,0,0,0,1.264-1.264V37.651A1.265,1.265,0,0,0,30.7,36.387H27.364l-.842-2.528h10.5a3.163,3.163,0,0,0,3.16-3.16V9.215A3.163,3.163,0,0,0,37.019,6.055Zm0,1.264a1.9,1.9,0,0,1,1.9,1.9V27.54H35.123V7.319Zm-3.16-5.055V27.54H7.319V2.264ZM4.16,7.319h1.9V27.54H2.264V9.215A1.9,1.9,0,0,1,4.16,7.319ZM30.7,38.915H10.479V37.651H30.7Zm-4.669-2.528H15.147l.842-2.528h9.2ZM37.019,32.6H4.16a1.9,1.9,0,0,1-1.9-1.9V28.8H38.915v1.9A1.9,1.9,0,0,1,37.019,32.6Z"/>
    <path id="Path_1081" data-name="Path 1081" d="M29,47h3.791v1.264H29Z" transform="translate(-10.307 -16.932)"/>
    <path id="Path_1082" data-name="Path 1082" d="M37,47h1.264v1.264H37Z" transform="translate(-13.251 -16.932)"/>
    <path id="Path_1083" data-name="Path 1083" d="M25,47h1.264v1.264H25Z" transform="translate(-8.834 -16.932)"/>
  </g>
</svg>
