<svg id="svgexport-6_-_2022-07-22T211411.842" data-name="svgexport-6 - 2022-07-22T211411.842" xmlns="http://www.w3.org/2000/svg" width="39.178" height="39.272" viewBox="0 0 39.178 39.272">
  <g id="Group_6192" data-name="Group 6192" transform="translate(0 0)">
    <g id="Group_6190" data-name="Group 6190" transform="translate(2.528 3.163)">
      <path id="Path_990" data-name="Path 990" d="M34.332,29.061a5.669,5.669,0,0,1,1.264.146V10.93L19.8,5.006,4,10.93v21.1l15.8,5.924,8.852-3.319a5.685,5.685,0,0,1,5.681-5.57Z" transform="translate(-4 -5.006)" fill="#ffa64d"/>
    </g>
    <g id="Group_6191" data-name="Group 6191">
      <path id="Path_991" data-name="Path 991" d="M48.968,51.329l-.781-.782-.894.894,1.747,1.747,4.235-4.942-.959-.823Z" transform="translate(-17.408 -17.456)"/>
      <path id="Path_992" data-name="Path 992" d="M36.651,27.863V7.2L18.325,0,0,7.2V32.073l18.325,7.2,8.909-3.5a6.314,6.314,0,1,0,9.416-7.91ZM18.325,37.914l-17.062-6.7V8.061l17.062-6.7,17.062,6.7V27.118a6.273,6.273,0,0,0-6.3.732H27.966c.02-.057.044-.112.059-.172l.273-1.092h.77A2.53,2.53,0,0,0,31.6,24.059V20.267A2.531,2.531,0,0,0,29.59,17.8l-.012-.056h.753A1.265,1.265,0,0,0,31.6,16.476V15.212a1.265,1.265,0,0,0-1.264-1.264H28.766l-.441-2.058a3.811,3.811,0,0,0-3.707-3H12.033a3.811,3.811,0,0,0-3.707,3l-.441,2.058H6.319a1.265,1.265,0,0,0-1.264,1.264v1.264A1.265,1.265,0,0,0,6.319,17.74h.753L7.06,17.8a2.533,2.533,0,0,0-2.005,2.473v3.791a2.53,2.53,0,0,0,2.528,2.528h.771l.273,1.092c.015.06.039.115.059.172H5.055v1.264H27.817a6.24,6.24,0,0,0-1.04,5.48ZM9.852,27.372l-.2-.785h3.437l-.2.785a.632.632,0,0,1-.614.479H10.466a.631.631,0,0,1-.614-.479ZM29.037,15.213h1.295v1.264H29.308Zm-.751,2.528H27.058L26.1,12.945a1.9,1.9,0,0,0-1.858-1.524H12.411a1.9,1.9,0,0,0-1.858,1.524L9.593,17.74H8.365l1.2-5.585a2.541,2.541,0,0,1,2.471-2H24.618a2.541,2.541,0,0,1,2.471,2ZM25.2,21.532h2.6V22.8H23.779ZM21.877,22.8h-7.1L10.509,19H26.142Zm-9,0H8.847V21.532h2.6Zm3.558-6.319V15.213H12.638v1.264H13.9V17.74H10.881l.909-4.547a.633.633,0,0,1,.619-.508H24.24a.632.632,0,0,1,.619.508l.909,4.547h-10.6V16.476Zm-9.087,0H6.319V15.213H7.614ZM7.583,19H8.607l1.422,1.264H8.847a1.265,1.265,0,0,0-1.264,1.264V22.8a1.265,1.265,0,0,0,1.264,1.264H27.8A1.265,1.265,0,0,0,29.068,22.8V21.532A1.265,1.265,0,0,0,27.8,20.268H26.622L28.044,19h1.024a1.265,1.265,0,0,1,1.264,1.264v3.791a1.265,1.265,0,0,1-1.264,1.264H7.583a1.265,1.265,0,0,1-1.264-1.264V20.268A1.265,1.265,0,0,1,7.583,19Zm6.54,8.675.273-1.092h7.86l.273,1.092c.015.06.039.115.059.172H14.064c.02-.057.044-.112.059-.172Zm9.632-.307-.2-.785H27l-.2.785a.632.632,0,0,1-.614.479H24.368a.631.631,0,0,1-.614-.479Zm9.105,10.59a5.055,5.055,0,1,1,5.055-5.055A5.061,5.061,0,0,1,32.859,37.961Z" transform="translate(0 0)"/>
    </g>
  </g>
</svg>
