<svg xmlns="http://www.w3.org/2000/svg" width="43.48" height="39.272" viewBox="0 0 43.48 39.272">
  <g id="svgexport-9_6_" data-name="svgexport-9 (6)" transform="translate(0)">
    <path id="Path_1084" data-name="Path 1084" d="M107.568,32a11.987,11.987,0,0,0-9.5,4.715L91.858,44.9l-.026.478a1.372,1.372,0,0,1,.365-.055H99.21V48.13a2.805,2.805,0,0,1-2.805,2.805H95v.7h29.454V32Zm0,0" transform="translate(-83.782 -29.195)" fill="#ffa64d"/>
    <path id="Path_1085" data-name="Path 1085" d="M41.376,0H23.752A14.814,14.814,0,0,0,12.065,5.767L3.039,17.537A14.807,14.807,0,0,0,0,26.5v10.67a2.107,2.107,0,0,0,2.1,2.1H41.376a2.107,2.107,0,0,0,2.1-2.1V2.1a2.107,2.107,0,0,0-2.1-2.1ZM4.152,18.391,13.177,6.62A13.4,13.4,0,0,1,23.752,1.4H41.376a.7.7,0,0,1,.7.7V30.857H1.4V26.5a13.4,13.4,0,0,1,2.75-8.108ZM41.376,37.87H2.1a.7.7,0,0,1-.7-.7v-2.1H4.208v-1.4H1.4v-1.4H42.078v1.4H4.909v1.4H42.078v2.1A.7.7,0,0,1,41.376,37.87Zm0,0"/>
    <path id="Path_1086" data-name="Path 1086" d="M369.4,276.208h5.61a1.4,1.4,0,0,0,1.4-1.4v-1.4a1.4,1.4,0,0,0-1.4-1.4H369.4a1.4,1.4,0,0,0-1.4,1.4v1.4A1.4,1.4,0,0,0,369.4,276.208Zm5.61-1.4h-1.4v-1.4h1.4Zm-5.61-1.4h2.805v1.4H369.4Zm0,0" transform="translate(-335.74 -248.156)"/>
    <path id="Path_1087" data-name="Path 1087" d="M74.1,183.013h4.208a3.511,3.511,0,0,0,3.506-3.506V176H74.1a2.107,2.107,0,0,0-2.1,2.1v2.805A2.107,2.107,0,0,0,74.1,183.013Zm-.7-4.909a.7.7,0,0,1,.7-.7h6.312v2.1a2.107,2.107,0,0,1-2.1,2.1H74.1a.7.7,0,0,1-.7-.7Zm0,0" transform="translate(-65.688 -160.572)"/>
  </g>
</svg>
